<svg version="1.1" id="Layer_1" xmlns="http://www.w3.org/2000/svg" xmlns:xlink="http://www.w3.org/1999/xlink" x="0px" y="0px"
     width="100%" viewBox="130 170 400 512" enable-background="new 0 0 672 1024" xml:space="preserve">
<path fill="#000000" opacity="1.000000" stroke="none" 
    d="
M515.734314,424.481049 
    C521.299744,436.537842 522.046448,448.772491 520.376526,461.418610 
    C518.321716,476.979614 513.988037,491.666290 505.319885,504.900085 
    C500.185089,512.739441 493.570038,519.053833 485.081543,522.979614 
    C481.350586,524.705017 479.986420,527.133423 479.372467,530.863586 
    C476.363800,549.143188 471.792542,566.965759 464.083099,583.927368 
    C459.409851,594.208984 453.068939,603.304138 445.788391,611.814453 
    C431.176605,628.287720 430.705688,628.174866 430.234802,628.062073
    C429.513916,628.975647 428.879211,629.975891 428.059540,630.790039
    C408.248413,650.467468 385.305328,665.374573 358.903107,674.420959
    C335.156708,682.557434 312.114288,678.033081 290.115356,667.675354
    C270.348907,658.368713 253.423248,644.815247 237.006714,629.493408
    C234.626587,627.139343 232.844757,624.141907 229.421021,621.875610
    C218.753036,609.241577 218.200119,608.212585 217.388382,607.321289
    C201.450058,589.820190 194.602753,568.141968 189.126587,545.832947
    C188.730164,544.217957 188.136597,542.623657 187.966568,540.985291
    C186.860962,530.331848 183.063309,522.650208 172.595566,516.718262
    C159.884628,509.515045 152.984863,496.130890 148.498383,482.183014
    C144.404633,469.456085 141.786804,456.473846 142.557800,442.923035
    C143.142838,432.641022 145.325806,423.139557 152.894257,415.622742
    C154.712189,413.817200 154.756775,411.983459 154.055984,409.714111
    C149.234177,394.099670 145.971741,378.149811 144.122726,361.919006
    C143.747284,358.623230 143.743500,355.280396 143.666214,351.957001
    C143.611755,349.614807 143.515869,347.313538 142.328552,345.232758
    C134.697083,346.952667 132.851181,345.386993 133.561829,337.836060
    C135.851501,313.507416 143.946915,291.186249 156.853256,270.525696
    C157.712723,269.149811 159.057465,267.997864 159.120224,266.304504
    C158.877884,265.381348 158.180984,265.302368 157.536057,265.172516
    C151.430573,263.943359 150.132797,261.499176 153.358643,256.204407
    C161.437149,242.944550 173.157593,233.346863 185.967834,225.057159
    C196.972275,217.935989 208.809601,212.714996 222.117462,211.646072
    C224.236374,211.475861 225.985809,210.573013 227.298843,208.971588
    C241.264511,191.938538 260.374054,183.378250 280.787720,177.713760
    C326.167816,165.121414 370.132538,171.284302 412.847321,189.486862
    C432.800293,197.989655 452.321930,207.422409 469.394775,221.064255
    C491.304260,238.570801 508.324554,260.182739 521.736267,284.713562
    C522.446655,286.012878 522.888062,287.477570 523.325195,288.904907
    C525.729858,296.756531 522.684692,299.856323 513.976135,298.459167
    C513.201172,298.914032 513.418396,299.615875 513.637756,300.214478
    C523.560669,327.298645 522.358276,354.703735 516.222107,382.313446
    C514.125854,391.745575 512.014832,401.157898 508.483215,410.166138
    C507.274109,413.250183 507.600189,415.447052 510.338867,417.509613
    C512.604797,419.216156 514.196838,421.633636 515.734314,424.481049
M193.107407,320.801697
    C203.298782,292.837402 218.089020,267.844421 240.293427,247.618454
    C242.156906,245.921005 243.782883,243.966599 243.060913,241.085785
    C242.411606,238.495010 243.236389,236.277115 245.523331,235.109634
    C248.089081,233.799835 250.799835,234.240616 252.961212,236.220673
    C254.423035,237.559860 255.738876,239.109131 256.891296,240.727295
    C265.546875,252.880920 276.606018,262.381500 289.370880,269.912231
    C293.961731,272.620636 298.540344,275.569916 304.264801,276.835205
    C302.186340,271.015472 298.528778,266.454193 297.513306,260.750946
    C297.020752,257.984680 296.705383,255.133850 299.287079,253.506302
    C302.096344,251.735291 304.995819,252.549484 307.563782,254.678879
    C326.816833,270.643829 348.753113,282.272675 370.809875,293.696167
    C372.152985,294.391754 373.525482,295.577057 375.546082,294.621307
    C373.272736,286.932678 370.551025,279.624084 367.221039,272.543030
    C366.082581,270.122192 365.562103,267.783417 367.603058,265.594666
    C369.521118,263.537659 372.005951,263.259460 374.528961,263.882599
    C376.116486,264.274719 377.648163,265.053650 379.084991,265.870056
    C392.732452,273.624786 405.882812,282.100952 417.389008,292.884583
    C419.670776,295.023041 421.714081,297.415955 423.867371,299.691528
    C423.482849,294.250397 421.742798,289.763397 419.941223,285.286682
    C418.887146,282.667542 417.738556,280.010712 417.237579,277.260590
    C416.214630,271.645233 418.999237,269.163696 424.308563,271.054474
    C428.048218,272.386292 431.715393,274.133240 435.105438,276.202026
    C466.404480,295.302277 480.775116,324.941254 486.227020,359.770020
    C488.729126,375.754456 488.027130,391.995209 488.340363,408.138855
    C488.370148,409.674683 487.605927,411.909943 489.835114,412.370880
    C491.852600,412.788055 493.836853,411.826385 494.896973,409.918060
    C495.943451,408.034302 496.781250,406.019867 497.560150,404.004639
    C502.391632,391.504120 504.861176,378.438904 506.706970,365.232697
    C508.320312,353.689697 509.537537,342.155640 508.061951,330.458313
    C506.231018,315.944305 501.350250,302.338531 496.368835,288.728333
    C495.417725,286.129700 494.100159,283.370148 495.669037,280.546936
    C497.282745,277.643097 500.305756,278.133911 503.195435,278.193726
    C490.032471,255.887360 466.058136,229.614182 434.362701,213.241501
    C393.307861,192.034103 350.737732,178.442413 303.827271,185.348175
    C277.557007,189.215454 253.520325,198.119431 235.201202,218.617798
    C233.193329,220.864517 231.006485,223.156830 227.775909,223.277649
    C210.803864,223.912491 196.889694,231.770248 183.805084,241.651947
    C182.155670,242.897614 180.370270,244.022964 179.188370,246.094757
    C182.365524,246.505249 185.340439,246.584839 186.396133,250.012665
    C187.467148,253.490250 186.195816,256.195892 183.621902,258.473633
    C167.100845,273.093964 157.562592,291.964020 150.934921,312.541870
    C149.686920,316.416687 148.133774,320.348389 148.497406,324.859924
    C154.436981,325.675842 155.385696,329.745941 155.356949,334.732056
    C155.308075,343.214233 155.266449,351.679443 156.185638,360.166138
    C157.858521,375.611267 161.124161,390.682068 165.578339,405.524597
    C166.038422,407.057678 166.294464,409.297791 168.236145,409.403442
    C172.498459,409.635529 176.117874,411.700500 181.015869,413.590546
    C182.360214,382.176270 181.922043,351.064819 193.107407,320.801697
M353.066254,298.511047
    C344.258484,293.638184 335.450714,288.765350 326.353851,283.732574
    C328.284760,290.694672 325.353699,294.872223 319.228302,294.102142
    C311.613586,293.144897 304.237946,291.228210 297.173431,288.064972
    C281.160980,280.895233 266.827179,271.407684 255.206314,258.134155
    C252.760071,255.339996 250.879578,254.813309 247.907303,257.691315
    C231.656769,273.426544 219.440094,291.786591 210.070084,312.369110
    C197.251373,340.527191 194.914246,370.362488 194.330109,400.599213
    C194.307449,401.772064 194.489685,402.948853 194.634537,404.910889
    C199.330078,397.581573 205.470444,393.924286 212.944595,392.328430
    C239.539337,386.650116 266.394043,385.364380 293.267426,389.224457
    C303.268890,390.661041 313.072540,394.300079 318.968506,403.814240
    C320.307220,405.974457 322.117523,405.950500 324.181091,405.375610
    C333.115234,402.886566 341.933197,403.204346 350.629303,406.469208
    C352.299286,407.096161 353.739563,407.391205 354.776947,405.291016
    C359.421722,395.887756 368.346039,392.885193 377.550629,390.845001
    C398.605804,386.178131 419.896637,387.000458 441.121490,389.322296
    C453.103302,390.632996 465.580536,391.240234 474.654999,401.931549
    C475.167419,381.158142 475.778931,360.793396 469.008636,341.093201
    C462.589905,322.416016 453.143463,305.708191 436.872681,291.849854
    C438.361450,300.224243 439.834076,307.348145 439.337769,314.649872
    C439.146759,317.460388 439.646210,320.558319 436.635956,322.200134
    C433.325104,324.005829 430.493011,322.199829 427.865326,320.393036
    C423.169769,317.164398 419.395599,312.901978 415.343933,308.948334
    C407.041473,300.846802 398.407867,293.143005 388.048615,286.621674
    C389.239471,291.411957 390.507477,295.534241 391.263580,299.748383
    C393.097382,309.969055 388.467316,313.825592 378.531555,310.570923
    C369.771942,307.701508 361.854614,303.045135 353.066254,298.511047
M290.473663,471.279541
    C284.119415,472.796295 277.655365,473.145935 271.147491,473.324188
    C256.801056,473.717102 242.555084,472.514557 228.280380,471.299255
    C210.094177,469.750977 200.731766,462.028229 196.620407,444.256073
    C195.945648,441.339294 195.277466,438.418579 194.716461,435.478668
    C194.163727,432.582062 193.751007,429.658722 193.276840,426.747131
    C192.225754,464.487122 192.859146,502.025848 199.805420,539.146057
    C201.606445,537.303467 202.401398,534.910217 205.181671,535.443237
    C207.681808,535.922668 208.380737,538.196777 209.057755,540.239319
    C209.629898,541.965454 209.941803,543.783264 210.297516,545.574707
    C211.652496,552.398438 212.173920,559.387512 214.278122,566.430847
    C215.029739,565.141846 215.533051,564.136536 216.168274,563.222961
    C217.101669,561.880493 217.874390,560.095215 219.847427,560.247131
    C222.034973,560.415527 222.672073,562.344910 223.295212,564.071350
    C223.745560,565.319031 224.093918,566.611877 224.383408,567.907837
    C226.082596,575.514771 227.751053,583.128601 229.632172,591.657166
    C230.139404,587.007263 230.339355,583.241516 231.036026,579.570007
    C231.406555,577.617371 231.503464,574.705017 234.344376,574.661194
    C236.683502,574.625122 237.216797,577.161743 238.031860,578.925049
    C240.121811,583.446594 240.097702,588.460815 241.125748,593.275818
    C243.939590,582.754272 244.886536,572.038147 245.636032,561.314026
    C246.740936,545.504700 251.609802,531.797302 266.782745,524.197205
    C283.262299,515.942749 301.004486,513.811951 319.208832,514.230774
    C327.681396,514.425720 336.080292,516.137756 344.601715,515.278748
    C361.371796,513.588257 377.887878,514.874451 393.900421,520.311096
    C414.195068,527.201660 423.710175,540.416931 424.026886,561.838379
    C424.179169,572.138916 425.934113,582.201965 427.958099,593.668762
    C429.591583,586.879456 429.244476,581.170898 431.061981,575.877380
    C431.586273,574.350342 432.062866,572.411072 434.162903,572.450928
    C435.952667,572.484924 436.527985,574.217285 436.987122,575.579529
    C438.154724,579.043762 439.115631,582.577637 440.380096,586.825500
    C442.421265,579.374023 443.025146,572.586609 443.671082,565.808411
    C444.005371,562.301025 443.920990,558.017944 448.416168,557.622925
    C452.560242,557.258667 453.330444,561.330750 454.319153,564.504089
    C454.468750,564.984192 454.616516,565.084778 455.062805,564.575623
    C456.600647,558.679871 458.127441,552.548889 459.815186,546.462646
    C460.790558,542.945251 461.598785,539.050293 464.886597,537.016541
    C467.156433,535.612488 467.434814,533.878540 467.759338,531.691589
    C469.638702,519.026489 470.760834,506.283112 472.079681,493.553986
    C473.802795,476.922485 474.311707,460.252930 474.792877,443.413574
    C472.875702,460.713226 462.658722,468.676605 446.173096,471.725189
    C425.828552,475.487366 405.737396,473.584930 385.561279,471.609772
    C371.743774,470.257050 363.379974,461.836090 358.792908,449.275574
    C357.430359,445.544556 356.471893,441.632233 355.689941,437.730499
    C354.393707,431.262756 353.390564,424.736267 352.207855,417.910675
    C349.187225,418.627136 346.582947,418.137512 344.008179,417.399414
    C338.241180,415.746063 332.504852,416.362091 326.697998,417.338409
    C322.577759,418.031128 320.517914,420.131714 320.382202,424.254730
    C320.161865,430.949432 318.495636,437.418030 317.198212,443.937195
    C314.311646,458.441345 306.965668,468.769318 290.473663,471.279541

M278.389984,399.384491 
    C263.244324,399.325287 248.082504,398.802399 232.979858,400.363861 
    C225.233841,401.164734 217.301208,401.057190 209.968857,404.280701 
    C206.666229,405.732635 203.566116,407.640930 203.425385,411.715759 
    C202.997665,424.099915 204.112930,436.317383 208.433319,448.043976 
    C210.721527,454.254700 215.123032,458.141266 221.687347,459.727478 
    C227.551865,461.144592 233.498413,461.676361 239.470749,462.005859 
    C255.578735,462.894562 271.661469,463.739044 287.736816,460.997406 
    C296.413300,459.517639 301.864044,454.830078 304.796082,446.819946 
    C308.374695,437.043579 310.406891,427.018036 309.950562,416.522247 
    C309.727539,411.393250 307.516113,407.773682 303.298737,404.965790 
    C295.975006,400.089691 287.670074,399.803802 278.389984,399.384491 
M431.417786,462.921295 
    C436.930237,462.878876 442.331970,461.996033 447.686737,460.766968 
    C456.041260,458.849426 461.585358,454.002716 463.673218,445.500610 
    C465.621765,437.566071 466.426178,429.499268 467.016174,421.361603 
    C467.865601,409.645386 465.660156,406.231049 454.257782,403.291595 
    C452.652283,402.877716 451.017487,402.530273 449.374878,402.314789 
    C434.367828,400.345856 419.297699,399.094757 404.159119,399.222443 
    C392.659790,399.319489 381.256653,400.339935 370.494537,404.986572 
    C367.213501,406.403168 364.719543,408.491333 364.409973,412.214233 
    C363.479614,423.403198 364.116547,434.438385 367.745392,445.199066 
    C371.375153,455.962616 378.888641,460.773987 390.081299,461.802704 
    C403.540558,463.039734 416.975830,462.977905 431.417786,462.921295 
M398.148743,552.382019 
    C396.594482,550.784790 394.783752,549.620300 392.520020,549.441956 
    C383.573547,548.737122 374.632843,547.684692 365.673157,547.473083 
    C336.536377,546.784912 307.413574,547.309143 278.326752,549.340576 
    C273.949707,549.646240 271.286560,551.519775 270.218079,555.953857 
    C268.088745,564.790710 267.635956,573.727661 268.230896,582.731262 
    C269.310516,599.070312 291.627838,611.036194 305.739807,602.910889 
    C311.934204,599.344177 312.362701,598.366577 310.663269,591.676392 
    C309.310028,586.348999 311.730530,582.320618 316.762329,582.793579 
    C329.254059,583.967712 341.683319,583.725769 354.161255,582.757996 
    C358.676422,582.407837 361.032471,585.253784 361.474670,589.763245 
    C361.769470,592.769470 359.748993,594.652466 358.629303,596.899597 
    C359.330475,599.130798 361.106720,600.119019 362.790527,601.158203 
    C376.200623,609.434692 397.366516,600.367310 401.327759,584.233643 
    C403.920837,573.672119 402.857941,563.110229 398.148743,552.382019 
M182.244232,506.610809 
    C183.777496,496.457703 181.663223,486.415894 181.153107,476.334656 
    C180.972580,472.766876 181.711136,468.922882 179.922379,465.559418 
    C175.783676,457.777252 171.459793,450.109161 165.772644,443.289856 
    C164.458755,441.714417 162.749954,440.090759 163.350266,437.097290 
    C170.316422,435.779938 174.718521,440.951263 179.862457,444.098022 
    C183.554810,435.049011 174.790863,423.785034 168.630646,422.142944 
    C163.279816,420.716644 157.697144,426.629791 155.211517,436.309204 
    C155.045975,436.953888 154.741989,437.583008 154.690735,438.234161 
    C152.748459,462.911743 158.598709,485.107330 175.716904,503.642639 
    C177.268036,505.322144 179.065353,506.949829 182.244232,506.610809 
M496.381714,440.134827 
    C499.703400,440.733795 498.844330,442.772125 497.693512,444.534760 
    C495.605530,447.732849 493.387115,450.857544 491.046478,453.875916 
    C488.137451,457.627289 485.946350,461.503510 485.817291,466.492767 
    C485.546448,476.959900 484.412140,487.373016 483.498230,497.801514 
    C483.178680,501.447968 481.448212,505.155731 482.881775,509.299438 
    C487.875580,507.106964 491.447723,503.647217 494.161896,499.501801 
    C505.676392,481.915466 510.591583,462.546326 508.521240,441.632080 
    C507.881989,435.174286 505.994507,428.844025 499.835175,424.963135 
    C497.349091,423.396698 495.293274,423.564178 493.123444,425.599915 
    C487.800323,430.594299 486.325684,436.603027 487.763092,443.976105 
    C490.690643,442.735382 492.827393,440.676300 496.381714,440.134827 
z"/>
<path fill="#000000" opacity="1.000000" stroke="none" 
    d="
M234.997757,380.188049 
    C229.648468,381.069244 224.728561,381.875732 219.810684,382.694427 
    C217.724869,383.041687 215.742905,382.997345 214.605347,380.844910 
    C213.536926,378.823273 214.209717,376.943359 215.441635,375.243713 
    C217.854156,371.915283 221.190231,369.719238 224.812607,367.959503 
    C237.275009,361.905457 250.552383,360.125854 264.190033,361.131195 
    C273.955719,361.851074 283.745422,362.763977 293.186462,365.712555 
    C296.225677,366.661743 299.174744,367.804413 301.637299,369.878662 
    C304.381409,372.190094 305.165924,375.226074 303.759888,378.427155 
    C302.300354,381.749939 299.531555,382.671204 295.897858,381.984406 
    C280.658478,379.103973 265.294891,377.428528 249.762894,378.349670 
    C244.966492,378.634155 240.205292,379.512115 234.997757,380.188049 
z"/>
<path fill="#000000" opacity="1.000000" stroke="none" 
    d="
M449.799133,368.027405 
    C453.596069,369.983978 456.583984,372.318451 458.610229,375.715149 
    C459.693024,377.530243 460.119141,379.480835 458.882874,381.369751 
    C457.734741,383.123932 455.854126,383.375427 453.983765,383.083466 
    C449.883087,382.443298 445.791077,381.730865 441.717896,380.933624 
    C422.153687,377.104401 402.689148,378.034576 383.356171,382.383270 
    C379.151978,383.328979 375.931610,382.732819 374.250153,378.716339 
    C372.490448,374.512665 374.179626,371.209991 378.152435,369.201569 
    C388.150208,364.147278 399.041199,362.479645 409.989288,361.829102 
    C423.495117,361.026520 436.954376,361.657959 449.799133,368.027405 
z"/>
<path fill="#000000" opacity="1.000000" stroke="none" 
    d="
M336.900238,479.577271 
    C335.866333,485.085144 334.276306,489.954254 332.219452,494.718506 
    C330.269897,499.234283 331.244507,500.528320 335.890625,501.742462 
    C342.869843,503.566223 349.002350,501.515442 354.948303,498.198181 
    C357.557800,496.742371 360.095520,495.879700 362.824524,497.989349 
    C366.827698,501.084045 367.060730,504.978912 362.885071,507.786041 
    C352.117859,515.024353 340.552582,516.689758 328.290283,511.933380 
    C325.967163,511.032227 323.501190,510.330322 321.409973,509.037048 
    C317.522644,506.633026 315.955536,500.146149 318.335205,495.649139 
    C324.602173,483.805817 326.643372,471.192841 325.859711,457.973145 
    C325.721710,455.644836 325.757385,453.321014 326.530548,451.057129 
    C327.508545,448.193604 328.979584,445.827148 332.368896,445.789917 
    C335.994476,445.750061 337.252319,448.472717 337.697357,451.351746 
    C338.873138,458.957489 338.552826,466.612305 337.811493,474.246124 
    C337.651154,475.897400 337.296600,477.529755 336.900238,479.577271 
z"/>
<path fill="#000000" opacity="1.000000" stroke="none" 
    d="
M271.760498,408.201904 
    C277.923615,416.286469 278.028900,424.959290 274.636261,433.485901 
    C270.482025,443.926605 258.594543,445.054413 252.206177,435.835297 
    C248.072693,429.870270 246.592667,423.062897 248.227417,415.897003 
    C250.733505,404.911560 262.565552,400.925568 271.760498,408.201904 
z"/>
<path fill="#000000" opacity="1.000000" stroke="none" 
    d="
M416.981628,406.736298 
    C426.381561,413.159119 428.119934,427.406250 420.709503,435.472504 
    C417.517212,438.947357 413.552368,441.189026 408.692383,439.942993 
    C402.246063,438.290314 399.425873,433.100494 398.055878,427.221100 
    C397.072998,423.003052 397.338654,418.631348 398.852631,414.423706 
    C401.924744,405.885651 408.056641,403.151489 416.981628,406.736298 
z"/>
<path fill="#000000" opacity="1.000000" stroke="none" 
    d="
M387.600525,561.763550 
    C374.706726,566.941223 361.406799,568.157532 348.165405,568.918640 
    C329.695251,569.980469 311.282928,568.587769 293.099487,565.014099 
    C289.541779,564.314880 286.074219,563.008423 282.674500,561.698120 
    C279.663635,560.537720 279.040009,557.914612 279.807861,555.068420 
    C280.684784,551.817932 283.336151,552.586853 285.567383,553.033813 
    C310.871124,558.101990 336.403046,558.554382 362.009094,556.557922 
    C369.440399,555.978577 376.795807,554.405579 384.179443,553.246155 
    C386.591125,552.867493 389.289215,551.596069 390.641052,554.836670 
    C391.877686,557.801147 390.427582,559.955322 387.600525,561.763550 
z"/>
</svg>
